<?xml version="1.0" encoding="UTF-8"?>
<svg id="Layer_2" data-name="Layer 2"
  xmlns="http://www.w3.org/2000/svg"
  viewBox="0 0 850 263.5">

  <defs>
    <style>
      /* Màu đảo sáng hơn để nổi bật trên nền tối */
      .cls-1, .cls-2, .cls-3, .cls-4, .cls-5 { stroke-width: 0px; }
      .cls-1, .cls-5 { fill: #0cdbf6; }
      .cls-3 { fill: #4c4c4c; }
      .cls-4 { fill: #faf3a9; }
      .cls-5 { fill-rule: evenodd; }

      text {
        font-family: Montserrat, sans-serif;
        font-size: 150px;
        font-weight: 650;
        letter-spacing: -2;
      }
    </style>

    <!-- Gradient cho dấu "-" -->
    <linearGradient id="dashGradient" x1="0%" y1="0%" x2="100%" y2="0%">
      <stop offset="0%" stop-color="#FAF3A9"/>
      <stop offset="100%" stop-color="#0CDBF6"/>
    </linearGradient>
  </defs>

  <g id="Layer_1-2" data-name="Layer 1">
    <!-- Biểu tượng -->
    <g>
      <path class="cls-3"
        d="M236.68,252.63c-1,0-1.81-.81-1.81-1.81V30.53c0-1,.81-1.81,1.81-1.81s1.81.81,1.81,1.81v220.28c0,1-.81,1.81-1.81,1.81Z"/>
      <g>
        <polygon class="cls-4"
          points="0 48.13 0 53.41 48.62 67.92 48.62 239.06 74.55 239.06 74.55 48.13 0 48.13"/>
        <path class="cls-5"
          d="M187.02,2.51c1.56-2.27-.48-3.59-2.41-1.35-28.16,32.78-84.61,105.64-96.84,169.32-2.82,14.7-3.6,28.44-.51,42.02,2.94,12.96,13.17,28.24,33.96,28.93,35.28,1.18,63.86-39.62,85.62-97.97.39-1.04-1-1.79-1.48-.79-23.92,49.95-62.08,82.61-82.49,72.83-33.65-16.13,6.07-128.57,64.16-213Z"/>
      </g>
    </g>

    <!-- ===== Chữ “TL-Stay” ===== -->
    <g transform="translate(260, 200)">
      <!-- TL -->
      <text x="0" y="0" fill="#ffffff">TL</text>
      <!-- dấu "-" với gradient -->
      <text x="185" y="0" fill="url(#dashGradient)">-</text>
      <!-- Stay -->
      <text x="250" y="0" fill="#ffffff">Stay</text>
    </g>

  </g>
</svg>
